<svg width="192" height="192" viewBox="0 0 192 192" fill="none" xmlns="http://www.w3.org/2000/svg">
<path d="M0 70.4C0 31.5192 31.5192 0 70.4 0H121.6C160.481 0 192 31.5192 192 70.4V121.6C192 160.481 160.481 192 121.6 192H70.4C31.5192 192 0 160.481 0 121.6V70.4Z" fill="url(#paint0_linear_68_2449)"/>
<g filter="url(#filter0_i_68_2449)">
<path d="M155.707 127.995C144.642 147.128 123.958 160 100.267 160C64.9204 160 36.2666 131.346 36.2666 96C36.2666 60.6538 64.9204 32 100.267 32C123.925 32 144.584 44.8366 155.661 63.9247L127.952 79.9424C122.411 70.4093 112.087 64 100.267 64C82.5935 64 68.2666 78.3269 68.2666 96C68.2666 113.673 82.5935 128 100.267 128C112.12 128 122.469 121.555 127.998 111.978L155.707 127.995Z" fill="white"/>
</g>
<defs>
<filter id="filter0_i_68_2449" x="36.2666" y="32" width="119.44" height="128.427" filterUnits="userSpaceOnUse" color-interpolation-filters="sRGB">
<feFlood flood-opacity="0" result="BackgroundImageFix"/>
<feBlend mode="normal" in="SourceGraphic" in2="BackgroundImageFix" result="shape"/>
<feColorMatrix in="SourceAlpha" type="matrix" values="0 0 0 0 0 0 0 0 0 0 0 0 0 0 0 0 0 0 127 0" result="hardAlpha"/>
<feOffset dy="0.426667"/>
<feGaussianBlur stdDeviation="0.213333"/>
<feComposite in2="hardAlpha" operator="arithmetic" k2="-1" k3="1"/>
<feColorMatrix type="matrix" values="0 0 0 0 0 0 0 0 0 0 0 0 0 0 0 0 0 0 0.25 0"/>
<feBlend mode="normal" in2="shape" result="effect1_innerShadow_68_2449"/>
</filter>
<linearGradient id="paint0_linear_68_2449" x1="96.6063" y1="-0.866103" x2="97.1942" y2="192.943" gradientUnits="userSpaceOnUse">
<stop offset="0.22918" stop-color="#F45000"/>
<stop offset="1" stop-color="#3E15A0"/>
</linearGradient>
</defs>
</svg>
