<svg width="32" height="32" viewBox="0 0 32 32" fill="none" xmlns="http://www.w3.org/2000/svg">
<path d="M0 11.7333C0 5.25319 5.25319 0 11.7333 0H20.2667C26.7468 0 32 5.25319 32 11.7333V20.2667C32 26.7468 26.7468 32 20.2667 32H11.7333C5.25319 32 0 26.7468 0 20.2667V11.7333Z" fill="url(#paint0_linear_68_2461)"/>
<g filter="url(#filter0_i_68_2461)">
<path d="M25.9507 21.3322C24.1065 24.5209 20.6591 26.6663 16.7106 26.6663C10.8196 26.6663 6.04395 21.8907 6.04395 15.9997C6.04395 10.1086 10.8196 5.33301 16.7106 5.33301C20.6536 5.33301 24.0969 7.47244 25.943 10.6538L21.3249 13.3234C20.4013 11.7346 18.6807 10.6663 16.7106 10.6663C13.7651 10.6663 11.3773 13.0542 11.3773 15.9997C11.3773 18.9452 13.7651 21.333 16.7106 21.333C18.6862 21.333 20.411 20.2588 21.3326 18.6626L25.9507 21.3322Z" fill="white"/>
</g>
<defs>
<filter id="filter0_i_68_2461" x="6.04395" y="5.33301" width="19.9072" height="21.4041" filterUnits="userSpaceOnUse" color-interpolation-filters="sRGB">
<feFlood flood-opacity="0" result="BackgroundImageFix"/>
<feBlend mode="normal" in="SourceGraphic" in2="BackgroundImageFix" result="shape"/>
<feColorMatrix in="SourceAlpha" type="matrix" values="0 0 0 0 0 0 0 0 0 0 0 0 0 0 0 0 0 0 127 0" result="hardAlpha"/>
<feOffset dy="0.0711111"/>
<feGaussianBlur stdDeviation="0.0355556"/>
<feComposite in2="hardAlpha" operator="arithmetic" k2="-1" k3="1"/>
<feColorMatrix type="matrix" values="0 0 0 0 0 0 0 0 0 0 0 0 0 0 0 0 0 0 0.25 0"/>
<feBlend mode="normal" in2="shape" result="effect1_innerShadow_68_2461"/>
</filter>
<linearGradient id="paint0_linear_68_2461" x1="16.1011" y1="-0.144351" x2="16.199" y2="32.1571" gradientUnits="userSpaceOnUse">
<stop offset="0.22918" stop-color="#F45000"/>
<stop offset="1" stop-color="#3E15A0"/>
</linearGradient>
</defs>
</svg>
