<svg width="16" height="16" viewBox="0 0 16 16" fill="none" xmlns="http://www.w3.org/2000/svg">
<path d="M0 5.86667C0 2.6266 2.6266 0 5.86667 0H10.1333C13.3734 0 16 2.6266 16 5.86667V10.1333C16 13.3734 13.3734 16 10.1333 16H5.86667C2.6266 16 0 13.3734 0 10.1333V5.86667Z" fill="url(#paint0_linear_68_2465)"/>
<g filter="url(#filter0_i_68_2465)">
<path d="M12.9749 10.6656C12.0528 12.26 10.3291 13.3327 8.35482 13.3327C5.4093 13.3327 3.02148 10.9449 3.02148 7.99935C3.02148 5.05383 5.4093 2.66602 8.35482 2.66602C10.3263 2.66602 12.048 3.73573 12.971 5.3264L10.6619 6.66121C10.2002 5.86679 9.33988 5.33268 8.35482 5.33268C6.88206 5.33268 5.68815 6.52659 5.68815 7.99935C5.68815 9.47211 6.88206 10.666 8.35482 10.666C9.34263 10.666 10.205 10.1289 10.6658 9.33082L12.9749 10.6656Z" fill="white"/>
</g>
<defs>
<filter id="filter0_i_68_2465" x="3.02148" y="2.66602" width="9.95312" height="10.7025" filterUnits="userSpaceOnUse" color-interpolation-filters="sRGB">
<feFlood flood-opacity="0" result="BackgroundImageFix"/>
<feBlend mode="normal" in="SourceGraphic" in2="BackgroundImageFix" result="shape"/>
<feColorMatrix in="SourceAlpha" type="matrix" values="0 0 0 0 0 0 0 0 0 0 0 0 0 0 0 0 0 0 127 0" result="hardAlpha"/>
<feOffset dy="0.0355556"/>
<feGaussianBlur stdDeviation="0.0177778"/>
<feComposite in2="hardAlpha" operator="arithmetic" k2="-1" k3="1"/>
<feColorMatrix type="matrix" values="0 0 0 0 0 0 0 0 0 0 0 0 0 0 0 0 0 0 0.25 0"/>
<feBlend mode="normal" in2="shape" result="effect1_innerShadow_68_2465"/>
</filter>
<linearGradient id="paint0_linear_68_2465" x1="8.05053" y1="-0.0721753" x2="8.09952" y2="16.0786" gradientUnits="userSpaceOnUse">
<stop offset="0.22918" stop-color="#F45000"/>
<stop offset="1" stop-color="#3E15A0"/>
</linearGradient>
</defs>
</svg>
