<svg width="672" height="173" viewBox="0 0 672 173" fill="none" xmlns="http://www.w3.org/2000/svg">
<mask id="path-1-outside-1_2752_1232" maskUnits="userSpaceOnUse" x="-1" y="-1" width="674" height="175" fill="black">
<rect fill="white" x="-1" y="-1" width="674" height="175"/>
<path d="M111.415 45.835H95.534C94.5948 41.267 92.9512 37.254 90.6031 33.7959C88.2978 30.3379 85.4801 27.4349 82.1502 25.0868C78.8629 22.6961 75.2128 20.903 71.1997 19.7076C67.1867 18.5123 63.0029 17.9146 58.6484 17.9146C50.7077 17.9146 43.5141 19.9211 37.0677 23.9341C30.6639 27.9471 25.5622 33.86 21.7627 41.6726C18.0058 49.4851 16.1274 59.0694 16.1274 70.4255C16.1274 81.7815 18.0058 91.3658 21.7627 99.1784C25.5622 106.991 30.6639 112.904 37.0677 116.917C43.5141 120.93 50.7077 122.936 58.6484 122.936C63.0029 122.936 67.1867 122.339 71.1997 121.143C75.2128 119.948 78.8629 118.176 82.1502 115.828C85.4801 113.437 88.2978 110.513 90.6031 107.055C92.9512 103.554 94.5948 99.5412 95.534 95.0159H111.415C110.22 101.719 108.043 107.717 104.884 113.01C101.724 118.304 97.7967 122.808 93.1006 126.522C88.4045 130.194 83.1321 132.99 77.2833 134.911C71.4772 136.832 65.2656 137.793 58.6484 137.793C47.4631 137.793 37.5159 135.061 28.8068 129.596C20.0977 124.132 13.2457 116.362 8.25073 106.287C3.25579 96.2113 0.758324 84.2576 0.758324 70.4255C0.758324 56.5933 3.25579 44.6396 8.25073 34.5644C13.2457 24.4891 20.0977 16.7192 28.8068 11.2547C37.5159 5.79012 47.4631 3.05785 58.6484 3.05785C65.2656 3.05785 71.4772 4.01841 77.2833 5.93954C83.1321 7.86068 88.4045 10.6783 93.1006 14.3925C97.7967 18.064 101.724 22.5466 104.884 27.8404C108.043 33.0915 110.22 39.0897 111.415 45.835ZM163.974 138.305C157.741 138.305 152.085 137.131 147.004 134.783C141.924 132.393 137.89 128.956 134.901 124.473C131.913 119.948 130.419 114.483 130.419 108.08C130.419 102.444 131.529 97.8763 133.748 94.3755C135.968 90.8321 138.936 88.0571 142.65 86.0506C146.364 84.0441 150.462 82.5499 154.945 81.568C159.47 80.5434 164.017 79.7323 168.585 79.1346C174.562 78.3661 179.407 77.7898 183.122 77.4056C186.878 76.9786 189.611 76.2742 191.318 75.2923C193.069 74.3104 193.944 72.6027 193.944 70.1693V69.657C193.944 63.3386 192.215 58.4291 188.757 54.9283C185.341 51.4276 180.154 49.6773 173.196 49.6773C165.981 49.6773 160.324 51.2569 156.226 54.416C152.127 57.5752 149.246 60.9479 147.581 64.534L133.236 59.411C135.798 53.4341 139.213 48.7807 143.482 45.4508C147.794 42.0781 152.49 39.7301 157.57 38.4066C162.694 37.0405 167.731 36.3574 172.683 36.3574C175.843 36.3574 179.471 36.7417 183.57 37.5101C187.711 38.2359 191.703 39.7514 195.545 42.0568C199.43 44.3621 202.653 47.8415 205.215 52.4949C207.776 57.1483 209.057 63.3813 209.057 71.1939V136H193.944V122.68H193.175C192.151 124.815 190.443 127.099 188.052 129.532C185.662 131.966 182.481 134.036 178.511 135.744C174.54 137.452 169.695 138.305 163.974 138.305ZM166.28 124.729C172.256 124.729 177.294 123.555 181.393 121.207C185.534 118.859 188.65 115.828 190.742 112.114C192.877 108.4 193.944 104.493 193.944 100.395V86.5629C193.304 87.3314 191.895 88.0358 189.717 88.6762C187.583 89.2739 185.107 89.8075 182.289 90.2771C179.514 90.704 176.803 91.0883 174.156 91.4298C171.552 91.7286 169.439 91.9848 167.817 92.1983C163.889 92.7106 160.217 93.543 156.802 94.6957C153.429 95.8057 150.697 97.492 148.605 99.7547C146.556 101.975 145.531 105.006 145.531 108.848C145.531 114.099 147.474 118.069 151.359 120.759C155.286 123.406 160.26 124.729 166.28 124.729ZM236.641 172.886V37.6382H251.242V53.2634H253.035C254.145 51.5557 255.681 49.3784 257.645 46.7315C259.652 44.0419 262.512 41.6512 266.226 39.5593C269.983 37.4247 275.064 36.3574 281.467 36.3574C289.75 36.3574 297.05 38.428 303.368 42.5691C309.687 46.7102 314.617 52.5803 318.161 60.1794C321.704 67.7786 323.476 76.7438 323.476 87.0752C323.476 97.492 321.704 106.521 318.161 114.163C314.617 121.762 309.708 127.654 303.432 131.838C297.157 135.979 289.92 138.049 281.723 138.049C275.405 138.049 270.346 137.003 266.547 134.911C262.747 132.777 259.823 130.365 257.773 127.675C255.724 124.943 254.145 122.68 253.035 120.887H251.754V172.886H236.641ZM251.498 86.8191C251.498 94.2475 252.586 100.801 254.764 106.479C256.941 112.114 260.121 116.533 264.305 119.734C268.489 122.894 273.612 124.473 279.674 124.473C285.993 124.473 291.265 122.808 295.492 119.478C299.761 116.106 302.963 111.58 305.097 105.902C307.274 100.182 308.363 93.8205 308.363 86.8191C308.363 79.903 307.296 73.67 305.161 68.1201C303.069 62.5275 299.889 58.1089 295.62 54.8643C291.393 51.577 286.078 49.9334 279.674 49.9334C273.527 49.9334 268.361 51.4917 264.177 54.6082C259.993 57.682 256.834 61.9938 254.7 67.5438C252.565 73.051 251.498 79.4761 251.498 86.8191ZM389.307 37.6382V50.4457H338.333V37.6382H389.307ZM353.189 14.0723H368.302V107.823C368.302 112.093 368.921 115.294 370.159 117.429C371.44 119.521 373.063 120.93 375.026 121.656C377.033 122.339 379.146 122.68 381.366 122.68C383.031 122.68 384.397 122.595 385.464 122.424C386.532 122.211 387.386 122.04 388.026 121.912L391.1 135.488C390.075 135.872 388.645 136.256 386.809 136.64C384.974 137.067 382.647 137.281 379.829 137.281C375.56 137.281 371.376 136.363 367.278 134.527C363.222 132.691 359.849 129.895 357.16 126.138C354.513 122.381 353.189 117.643 353.189 111.922V14.0723ZM474.029 95.7844V37.6382H489.141V136H474.029V119.35H473.004C470.699 124.345 467.112 128.593 462.246 132.094C457.379 135.552 451.231 137.281 443.803 137.281C437.655 137.281 432.191 135.936 427.409 133.246C422.628 130.514 418.871 126.416 416.138 120.951C413.406 115.444 412.04 108.507 412.04 100.139V37.6382H427.153V99.1143C427.153 106.287 429.159 112.007 433.172 116.276C437.228 120.546 442.394 122.68 448.67 122.68C452.426 122.68 456.247 121.72 460.132 119.798C464.06 117.877 467.347 114.932 469.994 110.961C472.684 106.991 474.029 101.932 474.029 95.7844ZM516.822 136V37.6382H531.422V52.4949H532.447C534.24 47.6281 537.485 43.6791 542.181 40.6479C546.877 37.6168 552.17 36.1013 558.062 36.1013C559.172 36.1013 560.559 36.1226 562.224 36.1653C563.889 36.208 565.149 36.272 566.003 36.3574V51.7265C565.49 51.5984 564.316 51.4063 562.481 51.1501C560.687 50.8513 558.788 50.7019 556.781 50.7019C552 50.7019 547.731 51.7051 543.974 53.7116C540.259 55.6754 537.314 58.4077 535.136 61.9084C533.002 65.3665 531.935 69.3155 531.935 73.7554V136H516.822ZM583.917 136V37.6382H599.03V136H583.917ZM591.602 21.2445C588.656 21.2445 586.116 20.2413 583.981 18.2348C581.889 16.2283 580.843 13.8162 580.843 10.9985C580.843 8.18087 581.889 5.76878 583.981 3.76226C586.116 1.75575 588.656 0.752499 591.602 0.752499C594.547 0.752499 597.066 1.75575 599.158 3.76226C601.293 5.76878 602.36 8.18087 602.36 10.9985C602.36 13.8162 601.293 16.2283 599.158 18.2348C597.066 20.2413 594.547 21.2445 591.602 21.2445ZM669.487 37.6382V50.4457H618.513V37.6382H669.487ZM633.37 14.0723H648.483V107.823C648.483 112.093 649.102 115.294 650.34 117.429C651.621 119.521 653.243 120.93 655.207 121.656C657.214 122.339 659.327 122.68 661.547 122.68C663.212 122.68 664.578 122.595 665.645 122.424C666.712 122.211 667.566 122.04 668.207 121.912L671.28 135.488C670.256 135.872 668.826 136.256 666.99 136.64C665.154 137.067 662.827 137.281 660.01 137.281C655.741 137.281 651.557 136.363 647.458 134.527C643.403 132.691 640.03 129.895 637.34 126.138C634.694 122.381 633.37 117.643 633.37 111.922V14.0723Z"/>
</mask>
<path d="M111.415 45.835H95.534C94.5948 41.267 92.9512 37.254 90.6031 33.7959C88.2978 30.3379 85.4801 27.4349 82.1502 25.0868C78.8629 22.6961 75.2128 20.903 71.1997 19.7076C67.1867 18.5123 63.0029 17.9146 58.6484 17.9146C50.7077 17.9146 43.5141 19.9211 37.0677 23.9341C30.6639 27.9471 25.5622 33.86 21.7627 41.6726C18.0058 49.4851 16.1274 59.0694 16.1274 70.4255C16.1274 81.7815 18.0058 91.3658 21.7627 99.1784C25.5622 106.991 30.6639 112.904 37.0677 116.917C43.5141 120.93 50.7077 122.936 58.6484 122.936C63.0029 122.936 67.1867 122.339 71.1997 121.143C75.2128 119.948 78.8629 118.176 82.1502 115.828C85.4801 113.437 88.2978 110.513 90.6031 107.055C92.9512 103.554 94.5948 99.5412 95.534 95.0159H111.415C110.22 101.719 108.043 107.717 104.884 113.01C101.724 118.304 97.7967 122.808 93.1006 126.522C88.4045 130.194 83.1321 132.99 77.2833 134.911C71.4772 136.832 65.2656 137.793 58.6484 137.793C47.4631 137.793 37.5159 135.061 28.8068 129.596C20.0977 124.132 13.2457 116.362 8.25073 106.287C3.25579 96.2113 0.758324 84.2576 0.758324 70.4255C0.758324 56.5933 3.25579 44.6396 8.25073 34.5644C13.2457 24.4891 20.0977 16.7192 28.8068 11.2547C37.5159 5.79012 47.4631 3.05785 58.6484 3.05785C65.2656 3.05785 71.4772 4.01841 77.2833 5.93954C83.1321 7.86068 88.4045 10.6783 93.1006 14.3925C97.7967 18.064 101.724 22.5466 104.884 27.8404C108.043 33.0915 110.22 39.0897 111.415 45.835ZM163.974 138.305C157.741 138.305 152.085 137.131 147.004 134.783C141.924 132.393 137.89 128.956 134.901 124.473C131.913 119.948 130.419 114.483 130.419 108.08C130.419 102.444 131.529 97.8763 133.748 94.3755C135.968 90.8321 138.936 88.0571 142.65 86.0506C146.364 84.0441 150.462 82.5499 154.945 81.568C159.47 80.5434 164.017 79.7323 168.585 79.1346C174.562 78.3661 179.407 77.7898 183.122 77.4056C186.878 76.9786 189.611 76.2742 191.318 75.2923C193.069 74.3104 193.944 72.6027 193.944 70.1693V69.657C193.944 63.3386 192.215 58.4291 188.757 54.9283C185.341 51.4276 180.154 49.6773 173.196 49.6773C165.981 49.6773 160.324 51.2569 156.226 54.416C152.127 57.5752 149.246 60.9479 147.581 64.534L133.236 59.411C135.798 53.4341 139.213 48.7807 143.482 45.4508C147.794 42.0781 152.49 39.7301 157.57 38.4066C162.694 37.0405 167.731 36.3574 172.683 36.3574C175.843 36.3574 179.471 36.7417 183.57 37.5101C187.711 38.2359 191.703 39.7514 195.545 42.0568C199.43 44.3621 202.653 47.8415 205.215 52.4949C207.776 57.1483 209.057 63.3813 209.057 71.1939V136H193.944V122.68H193.175C192.151 124.815 190.443 127.099 188.052 129.532C185.662 131.966 182.481 134.036 178.511 135.744C174.54 137.452 169.695 138.305 163.974 138.305ZM166.28 124.729C172.256 124.729 177.294 123.555 181.393 121.207C185.534 118.859 188.65 115.828 190.742 112.114C192.877 108.4 193.944 104.493 193.944 100.395V86.5629C193.304 87.3314 191.895 88.0358 189.717 88.6762C187.583 89.2739 185.107 89.8075 182.289 90.2771C179.514 90.704 176.803 91.0883 174.156 91.4298C171.552 91.7286 169.439 91.9848 167.817 92.1983C163.889 92.7106 160.217 93.543 156.802 94.6957C153.429 95.8057 150.697 97.492 148.605 99.7547C146.556 101.975 145.531 105.006 145.531 108.848C145.531 114.099 147.474 118.069 151.359 120.759C155.286 123.406 160.26 124.729 166.28 124.729ZM236.641 172.886V37.6382H251.242V53.2634H253.035C254.145 51.5557 255.681 49.3784 257.645 46.7315C259.652 44.0419 262.512 41.6512 266.226 39.5593C269.983 37.4247 275.064 36.3574 281.467 36.3574C289.75 36.3574 297.05 38.428 303.368 42.5691C309.687 46.7102 314.617 52.5803 318.161 60.1794C321.704 67.7786 323.476 76.7438 323.476 87.0752C323.476 97.492 321.704 106.521 318.161 114.163C314.617 121.762 309.708 127.654 303.432 131.838C297.157 135.979 289.92 138.049 281.723 138.049C275.405 138.049 270.346 137.003 266.547 134.911C262.747 132.777 259.823 130.365 257.773 127.675C255.724 124.943 254.145 122.68 253.035 120.887H251.754V172.886H236.641ZM251.498 86.8191C251.498 94.2475 252.586 100.801 254.764 106.479C256.941 112.114 260.121 116.533 264.305 119.734C268.489 122.894 273.612 124.473 279.674 124.473C285.993 124.473 291.265 122.808 295.492 119.478C299.761 116.106 302.963 111.58 305.097 105.902C307.274 100.182 308.363 93.8205 308.363 86.8191C308.363 79.903 307.296 73.67 305.161 68.1201C303.069 62.5275 299.889 58.1089 295.62 54.8643C291.393 51.577 286.078 49.9334 279.674 49.9334C273.527 49.9334 268.361 51.4917 264.177 54.6082C259.993 57.682 256.834 61.9938 254.7 67.5438C252.565 73.051 251.498 79.4761 251.498 86.8191ZM389.307 37.6382V50.4457H338.333V37.6382H389.307ZM353.189 14.0723H368.302V107.823C368.302 112.093 368.921 115.294 370.159 117.429C371.44 119.521 373.063 120.93 375.026 121.656C377.033 122.339 379.146 122.68 381.366 122.68C383.031 122.68 384.397 122.595 385.464 122.424C386.532 122.211 387.386 122.04 388.026 121.912L391.1 135.488C390.075 135.872 388.645 136.256 386.809 136.64C384.974 137.067 382.647 137.281 379.829 137.281C375.56 137.281 371.376 136.363 367.278 134.527C363.222 132.691 359.849 129.895 357.16 126.138C354.513 122.381 353.189 117.643 353.189 111.922V14.0723ZM474.029 95.7844V37.6382H489.141V136H474.029V119.35H473.004C470.699 124.345 467.112 128.593 462.246 132.094C457.379 135.552 451.231 137.281 443.803 137.281C437.655 137.281 432.191 135.936 427.409 133.246C422.628 130.514 418.871 126.416 416.138 120.951C413.406 115.444 412.04 108.507 412.04 100.139V37.6382H427.153V99.1143C427.153 106.287 429.159 112.007 433.172 116.276C437.228 120.546 442.394 122.68 448.67 122.68C452.426 122.68 456.247 121.72 460.132 119.798C464.06 117.877 467.347 114.932 469.994 110.961C472.684 106.991 474.029 101.932 474.029 95.7844ZM516.822 136V37.6382H531.422V52.4949H532.447C534.24 47.6281 537.485 43.6791 542.181 40.6479C546.877 37.6168 552.17 36.1013 558.062 36.1013C559.172 36.1013 560.559 36.1226 562.224 36.1653C563.889 36.208 565.149 36.272 566.003 36.3574V51.7265C565.49 51.5984 564.316 51.4063 562.481 51.1501C560.687 50.8513 558.788 50.7019 556.781 50.7019C552 50.7019 547.731 51.7051 543.974 53.7116C540.259 55.6754 537.314 58.4077 535.136 61.9084C533.002 65.3665 531.935 69.3155 531.935 73.7554V136H516.822ZM583.917 136V37.6382H599.03V136H583.917ZM591.602 21.2445C588.656 21.2445 586.116 20.2413 583.981 18.2348C581.889 16.2283 580.843 13.8162 580.843 10.9985C580.843 8.18087 581.889 5.76878 583.981 3.76226C586.116 1.75575 588.656 0.752499 591.602 0.752499C594.547 0.752499 597.066 1.75575 599.158 3.76226C601.293 5.76878 602.36 8.18087 602.36 10.9985C602.36 13.8162 601.293 16.2283 599.158 18.2348C597.066 20.2413 594.547 21.2445 591.602 21.2445ZM669.487 37.6382V50.4457H618.513V37.6382H669.487ZM633.37 14.0723H648.483V107.823C648.483 112.093 649.102 115.294 650.34 117.429C651.621 119.521 653.243 120.93 655.207 121.656C657.214 122.339 659.327 122.68 661.547 122.68C663.212 122.68 664.578 122.595 665.645 122.424C666.712 122.211 667.566 122.04 668.207 121.912L671.28 135.488C670.256 135.872 668.826 136.256 666.99 136.64C665.154 137.067 662.827 137.281 660.01 137.281C655.741 137.281 651.557 136.363 647.458 134.527C643.403 132.691 640.03 129.895 637.34 126.138C634.694 122.381 633.37 117.643 633.37 111.922V14.0723Z" fill="black"/>
<path d="M111.415 45.835V46.835H112.608L112.4 45.6605L111.415 45.835ZM95.534 45.835L94.5545 46.0364L94.7187 46.835H95.534V45.835ZM90.6031 33.7959L89.7711 34.3506L89.7758 34.3577L90.6031 33.7959ZM82.1502 25.0868L81.562 25.8955L81.5679 25.8998L81.5739 25.9041L82.1502 25.0868ZM71.1997 19.7076L70.9143 20.666L71.1997 19.7076ZM37.0677 23.9341L36.5392 23.0852L36.5367 23.0868L37.0677 23.9341ZM21.7627 41.6726L20.8634 41.2352L20.8615 41.2392L21.7627 41.6726ZM21.7627 99.1784L20.8614 99.6117L20.8634 99.6157L21.7627 99.1784ZM37.0677 116.917L36.5367 117.764L36.5392 117.766L37.0677 116.917ZM71.1997 121.143L70.9143 120.185L71.1997 121.143ZM82.1502 115.828L82.7314 116.642L82.7334 116.64L82.1502 115.828ZM90.6031 107.055L89.7727 106.498L89.7711 106.5L90.6031 107.055ZM95.534 95.0159V94.0159H94.7203L94.5549 94.8127L95.534 95.0159ZM111.415 95.0159L112.4 95.1915L112.61 94.0159H111.415V95.0159ZM104.884 113.01L104.025 112.498L104.884 113.01ZM93.1006 126.522L93.7165 127.31L93.7209 127.307L93.1006 126.522ZM77.2833 134.911L76.9712 133.961L76.9692 133.962L77.2833 134.911ZM28.8068 129.596L28.2753 130.443L28.8068 129.596ZM8.25073 106.287L9.14667 105.842L8.25073 106.287ZM77.2833 5.93954L76.9692 6.88893L76.9712 6.88961L77.2833 5.93954ZM93.1006 14.3925L92.4803 15.1769L92.4847 15.1803L93.1006 14.3925ZM104.884 27.8404L104.025 28.3529L104.027 28.3559L104.884 27.8404ZM111.415 44.835H95.534V46.835H111.415V44.835ZM96.5135 45.6336C95.5509 40.9515 93.8606 36.8131 91.4305 33.2342L89.7758 34.3577C92.0418 37.6948 93.6388 41.5824 94.5545 46.0364L96.5135 45.6336ZM91.4352 33.2412C89.0629 29.6828 86.1591 26.69 82.7264 24.2695L81.5739 25.9041C84.8011 28.1797 87.5327 30.993 89.7711 34.3506L91.4352 33.2412ZM82.7383 24.2781C79.3566 21.8186 75.6036 19.976 71.4852 18.7493L70.9143 20.666C74.822 21.83 78.3692 23.5735 81.562 25.8955L82.7383 24.2781ZM71.4852 18.7493C67.3759 17.5252 63.0957 16.9146 58.6484 16.9146V18.9146C62.9101 18.9146 66.9975 19.4993 70.9143 20.666L71.4852 18.7493ZM58.6484 16.9146C50.5298 16.9146 43.1517 18.9688 36.5392 23.0852L37.5961 24.7831C43.8766 20.8734 50.8855 18.9146 58.6484 18.9146V16.9146ZM36.5367 23.0868C29.9515 27.2134 24.7324 33.2799 20.8634 41.2352L22.662 42.1099C26.3921 34.44 31.3763 28.6809 37.5987 24.7815L36.5367 23.0868ZM20.8615 41.2392C17.0227 49.2221 15.1274 58.964 15.1274 70.4255H17.1274C17.1274 59.1749 18.9889 49.7481 22.6639 42.1059L20.8615 41.2392ZM15.1274 70.4255C15.1274 81.8869 17.0227 91.6288 20.8615 99.6117L22.6639 98.745C18.9889 91.1028 17.1274 81.676 17.1274 70.4255H15.1274ZM20.8634 99.6157C24.7324 107.571 29.9515 113.637 36.5367 117.764L37.5987 116.069C31.3763 112.17 26.3921 106.411 22.662 98.741L20.8634 99.6157ZM36.5392 117.766C43.1517 121.882 50.5298 123.936 58.6484 123.936V121.936C50.8855 121.936 43.8766 119.978 37.5961 116.068L36.5392 117.766ZM58.6484 123.936C63.0957 123.936 67.3759 123.326 71.4852 122.102L70.9143 120.185C66.9975 121.352 62.9101 121.936 58.6484 121.936V123.936ZM71.4852 122.102C75.6002 120.876 79.351 119.056 82.7314 116.642L81.5689 115.014C78.3748 117.296 74.8253 119.02 70.9143 120.185L71.4852 122.102ZM82.7334 116.64C86.1625 114.179 89.064 111.166 91.4352 107.61L89.7711 106.5C87.5316 109.86 84.7978 112.696 81.567 115.016L82.7334 116.64ZM91.4336 107.612C93.8603 103.994 95.5503 99.8586 96.5132 95.2191L94.5549 94.8127C93.6394 99.2238 92.0421 103.114 89.7727 106.498L91.4336 107.612ZM95.534 96.0159H111.415V94.0159H95.534V96.0159ZM110.431 94.8403C109.255 101.436 107.116 107.318 104.025 112.498L105.742 113.523C108.97 108.115 111.185 102.001 112.4 95.1915L110.431 94.8403ZM104.025 112.498C100.926 117.691 97.0782 122.102 92.4803 125.738L93.7209 127.307C98.5152 123.515 102.523 118.918 105.742 113.523L104.025 112.498ZM92.4847 125.735C87.8827 129.333 82.7138 132.075 76.9712 133.961L77.5954 135.861C83.5504 133.905 88.9263 131.055 93.7165 127.31L92.4847 125.735ZM76.9692 133.962C71.2724 135.847 65.1676 136.793 58.6484 136.793V138.793C65.3636 138.793 71.682 137.818 77.5974 135.861L76.9692 133.962ZM58.6484 136.793C47.634 136.793 37.8742 134.105 29.3383 128.749L28.2753 130.443C37.1576 136.017 47.2923 138.793 58.6484 138.793V136.793ZM29.3383 128.749C20.8 123.392 14.0676 115.768 9.14667 105.842L7.35479 106.731C12.4237 116.955 19.3954 124.872 28.2753 130.443L29.3383 128.749ZM9.14667 105.842C4.23412 95.9333 1.75832 84.1383 1.75832 70.4255H-0.241675C-0.241675 84.3769 2.27747 96.4893 7.35479 106.731L9.14667 105.842ZM1.75832 70.4255C1.75832 56.7126 4.23412 44.9176 9.14667 35.0085L7.35479 34.1202C2.27747 44.3616 -0.241675 56.474 -0.241675 70.4255H1.75832ZM9.14667 35.0085C14.0676 25.0826 20.8 17.4591 29.3383 12.1017L28.2753 10.4076C19.3954 15.9793 12.4237 23.8956 7.35479 34.1202L9.14667 35.0085ZM29.3383 12.1017C37.8742 6.74586 47.634 4.05785 58.6484 4.05785V2.05785C47.2923 2.05785 37.1576 4.83438 28.2753 10.4076L29.3383 12.1017ZM58.6484 4.05785C65.1676 4.05785 71.2724 5.00396 76.9692 6.88892L77.5974 4.99017C71.682 3.03286 65.3636 2.05785 58.6484 2.05785V4.05785ZM76.9712 6.88961C82.7115 8.7751 87.879 11.5377 92.4803 15.1768L93.7209 13.6082C88.93 9.819 83.5527 6.94625 77.5954 4.98948L76.9712 6.88961ZM92.4847 15.1803C97.0802 18.7732 100.927 23.1614 104.025 28.3529L105.742 27.328C102.522 21.9319 98.5132 17.3548 93.7165 13.6047L92.4847 15.1803ZM104.027 28.3559C107.116 33.4905 109.254 39.3706 110.431 46.0095L112.4 45.6605C111.186 38.8088 108.97 32.6925 105.74 27.3249L104.027 28.3559ZM147.004 134.783L146.578 135.688L146.585 135.691L147.004 134.783ZM134.901 124.473L134.067 125.024L134.069 125.028L134.901 124.473ZM133.748 94.3755L134.593 94.9111L134.596 94.9064L133.748 94.3755ZM154.945 81.568L155.159 82.5449L155.166 82.5433L154.945 81.568ZM168.585 79.1346L168.457 78.1427L168.455 78.143L168.585 79.1346ZM183.122 77.4056L183.224 78.4003L183.234 78.3992L183.122 77.4056ZM191.318 75.2923L190.829 74.4201L190.82 74.4254L191.318 75.2923ZM188.757 54.9283L188.041 55.6267L188.045 55.6311L188.757 54.9283ZM156.226 54.416L156.836 55.2081L156.226 54.416ZM147.581 64.534L147.244 65.4757L148.103 65.7826L148.488 64.9551L147.581 64.534ZM133.236 59.411L132.317 59.0171L131.898 59.9949L132.9 60.3527L133.236 59.411ZM143.482 45.4508L144.097 46.2393L144.098 46.2384L143.482 45.4508ZM157.57 38.4066L157.823 39.3744L157.828 39.3729L157.57 38.4066ZM183.57 37.5101L183.385 38.493L183.397 38.4951L183.57 37.5101ZM195.545 42.0568L195.03 42.9143L195.035 42.9168L195.545 42.0568ZM205.215 52.4949L204.338 52.9771V52.9771L205.215 52.4949ZM209.057 136V137H210.057V136H209.057ZM193.944 136H192.944V137H193.944V136ZM193.944 122.68H194.944V121.68H193.944V122.68ZM193.175 122.68V121.68H192.546L192.274 122.247L193.175 122.68ZM188.052 129.532L188.766 130.233L188.052 129.532ZM178.511 135.744L178.116 134.825L178.511 135.744ZM181.393 121.207L180.899 120.337L180.895 120.34L181.393 121.207ZM190.742 112.114L189.875 111.616L189.871 111.623L190.742 112.114ZM193.944 86.5629H194.944V83.8009L193.176 85.9228L193.944 86.5629ZM189.717 88.6762L189.987 89.6392L190 89.6355L189.717 88.6762ZM182.289 90.2771L182.441 91.2656L182.453 91.2635L182.289 90.2771ZM174.156 91.4298L174.27 92.4234L174.284 92.4216L174.156 91.4298ZM167.817 92.1982L167.946 93.1898L167.947 93.1897L167.817 92.1982ZM156.802 94.6957L157.115 95.6456L157.122 95.6432L156.802 94.6957ZM148.605 99.7547L147.871 99.0758L147.87 99.0764L148.605 99.7547ZM151.359 120.759L150.79 121.581L150.8 121.588L151.359 120.759ZM163.974 137.305C157.87 137.305 152.358 136.156 147.424 133.876L146.585 135.691C151.811 138.106 157.613 139.305 163.974 139.305V137.305ZM147.43 133.878C142.507 131.562 138.616 128.243 135.733 123.919L134.069 125.028C137.163 129.669 141.341 133.223 146.578 135.688L147.43 133.878ZM135.736 123.922C132.873 119.588 131.419 114.324 131.419 108.08H129.419C129.419 114.643 130.952 120.308 134.067 125.024L135.736 123.922ZM131.419 108.08C131.419 102.568 132.505 98.2038 134.593 94.9111L132.904 93.84C130.552 97.5487 129.419 102.321 129.419 108.08H131.419ZM134.596 94.9064C136.723 91.511 139.561 88.8556 143.125 86.9305L142.174 85.1708C138.31 87.2587 135.214 90.1532 132.901 93.8446L134.596 94.9064ZM143.125 86.9305C146.75 84.972 150.76 83.5085 155.159 82.5448L154.731 80.5912C150.165 81.5913 145.978 83.1162 142.174 85.1708L143.125 86.9305ZM155.166 82.5433C159.661 81.5255 164.178 80.7198 168.715 80.1261L168.455 78.143C163.856 78.7447 159.279 79.5613 154.724 80.5927L155.166 82.5433ZM168.712 80.1264C174.685 79.3585 179.522 78.7833 183.224 78.4002L183.019 76.4109C179.293 76.7963 174.438 77.3738 168.457 78.1427L168.712 80.1264ZM183.234 78.3992C187.025 77.9684 189.926 77.2465 191.817 76.1592L190.82 74.4254C189.295 75.3019 186.732 75.9889 183.009 76.4119L183.234 78.3992ZM191.808 76.1645C193.945 74.9652 194.944 72.8735 194.944 70.1693H192.944C192.944 72.332 192.192 73.6556 190.829 74.4202L191.808 76.1645ZM194.944 70.1693V69.657H192.944V70.1693H194.944ZM194.944 69.657C194.944 63.1536 193.16 57.9625 189.468 54.2256L188.045 55.6311C191.27 58.8956 192.944 63.5236 192.944 69.657H194.944ZM189.473 54.23C185.801 50.467 180.309 48.6773 173.196 48.6773V50.6773C180 50.6773 184.882 52.3882 188.041 55.6267L189.473 54.23ZM173.196 48.6773C165.845 48.6773 159.946 50.2858 155.615 53.624L156.836 55.2081C160.702 52.2279 166.116 50.6773 173.196 50.6773V48.6773ZM155.615 53.624C151.428 56.852 148.424 60.3432 146.674 64.1129L148.488 64.9551C150.067 61.5526 152.827 58.2984 156.836 55.2081L155.615 53.624ZM147.917 63.5922L133.573 58.4692L132.9 60.3527L147.244 65.4757L147.917 63.5922ZM134.155 59.8049C136.664 53.9521 139.985 49.4465 144.097 46.2393L142.867 44.6623C138.441 48.115 134.932 52.9162 132.317 59.0171L134.155 59.8049ZM144.098 46.2384C148.307 42.9464 152.88 40.6618 157.823 39.3743L157.318 37.4389C152.1 38.7983 147.281 41.2099 142.866 44.6631L144.098 46.2384ZM157.828 39.3729C162.873 38.0276 167.824 37.3574 172.683 37.3574V35.3574C167.638 35.3574 162.514 36.0534 157.313 37.4404L157.828 39.3729ZM172.683 37.3574C175.765 37.3574 179.33 37.7325 183.385 38.493L183.754 36.5272C179.613 35.7508 175.92 35.3574 172.683 35.3574V37.3574ZM183.397 38.4951C187.41 39.1983 191.286 40.6678 195.03 42.9143L196.059 41.1993C192.119 38.835 188.012 37.2734 183.742 36.5251L183.397 38.4951ZM195.035 42.9168C198.741 45.1162 201.848 48.4523 204.338 52.9771L206.091 52.0127C203.458 47.2307 200.119 43.6081 196.055 41.1968L195.035 42.9168ZM204.338 52.9771C206.789 57.4294 208.057 63.4762 208.057 71.1939H210.057C210.057 63.2864 208.763 56.8672 206.091 52.0127L204.338 52.9771ZM208.057 71.1939V136H210.057V71.1939H208.057ZM209.057 135H193.944V137H209.057V135ZM194.944 136V122.68H192.944V136H194.944ZM193.944 121.68H193.175V123.68H193.944V121.68ZM192.274 122.247C191.313 124.25 189.684 126.445 187.339 128.831L188.766 130.233C191.203 127.753 192.989 125.38 194.077 123.113L192.274 122.247ZM187.339 128.831C185.06 131.151 181.997 133.156 178.116 134.825L178.906 136.662C182.965 134.917 186.263 132.78 188.766 130.233L187.339 128.831ZM178.116 134.825C174.304 136.465 169.601 137.305 163.974 137.305V139.305C169.789 139.305 174.777 138.438 178.906 136.662L178.116 134.825ZM166.28 125.729C172.385 125.729 177.605 124.53 181.89 122.075L180.895 120.34C176.983 122.581 172.128 123.729 166.28 123.729V125.729ZM181.886 122.077C186.166 119.65 189.422 116.495 191.613 112.605L189.871 111.623C187.878 115.161 184.901 118.068 180.899 120.337L181.886 122.077ZM191.609 112.612C193.827 108.754 194.944 104.676 194.944 100.395H192.944C192.944 104.311 191.927 108.046 189.875 111.616L191.609 112.612ZM194.944 100.395V86.5629H192.944V100.395H194.944ZM193.176 85.9228C192.98 86.1576 192.604 86.4511 191.96 86.7732C191.326 87.0901 190.49 87.4067 189.435 87.7168L190 89.6355C191.123 89.3053 192.079 88.9495 192.854 88.562C193.619 88.1797 194.267 87.7367 194.712 87.2031L193.176 85.9228ZM189.448 87.7132C187.356 88.2989 184.916 88.8254 182.125 89.2907L182.453 91.2635C185.297 90.7896 187.81 90.2488 189.987 89.6391L189.448 87.7132ZM182.137 89.2887C179.37 89.7145 176.667 90.0976 174.028 90.438L174.284 92.4216C176.94 92.079 179.659 91.6936 182.441 91.2655L182.137 89.2887ZM174.042 90.4363C171.435 90.7355 169.316 90.9923 167.686 91.2068L167.947 93.1897C169.562 92.9773 171.669 92.7218 174.27 92.4233L174.042 90.4363ZM167.687 91.2066C163.701 91.7266 159.965 92.5727 156.482 93.7482L157.122 95.6432C160.47 94.5134 164.077 93.6945 167.946 93.1898L167.687 91.2066ZM156.489 93.7458C152.98 94.9007 150.095 96.6706 147.871 99.0758L149.339 100.434C151.3 98.3134 153.878 96.7107 157.115 95.6456L156.489 93.7458ZM147.87 99.0764C145.608 101.527 144.531 104.825 144.531 108.848H146.531C146.531 105.186 147.504 102.422 149.34 100.433L147.87 99.0764ZM144.531 108.848C144.531 114.385 146.602 118.682 150.79 121.581L151.928 119.937C148.346 117.457 146.531 113.814 146.531 108.848H144.531ZM150.8 121.588C154.932 124.373 160.115 125.729 166.28 125.729V123.729C160.405 123.729 155.641 122.439 151.918 119.93L150.8 121.588ZM236.641 172.886H235.641V173.886H236.641V172.886ZM236.641 37.6382V36.6382H235.641V37.6382H236.641ZM251.242 37.6382H252.242V36.6382H251.242V37.6382ZM251.242 53.2634H250.242V54.2634H251.242V53.2634ZM253.035 53.2634V54.2634H253.577L253.873 53.8083L253.035 53.2634ZM257.645 46.7315L256.844 46.1336L256.842 46.1357L257.645 46.7315ZM266.226 39.5593L266.717 40.4306L266.72 40.4288L266.226 39.5593ZM303.368 42.5691L303.916 41.7327L303.368 42.5691ZM318.161 60.1794L319.067 59.7568L318.161 60.1794ZM318.161 114.163L319.067 114.586L319.068 114.584L318.161 114.163ZM303.432 131.838L303.983 132.672L303.987 132.67L303.432 131.838ZM266.547 134.911L266.057 135.783L266.064 135.787L266.547 134.911ZM257.773 127.675L256.973 128.275L256.978 128.281L257.773 127.675ZM253.035 120.887L253.885 120.361L253.592 119.887H253.035V120.887ZM251.754 120.887V119.887H250.754V120.887H251.754ZM251.754 172.886V173.886H252.754V172.886H251.754ZM254.764 106.479L253.83 106.837L253.831 106.839L254.764 106.479ZM264.305 119.734L263.697 120.529L263.703 120.532L264.305 119.734ZM295.492 119.478L296.11 120.264L296.111 120.263L295.492 119.478ZM305.097 105.902L304.163 105.547L304.161 105.55L305.097 105.902ZM305.161 68.1201L304.225 68.4705L304.228 68.4791L305.161 68.1201ZM295.62 54.8643L295.006 55.6537L295.015 55.6605L295.62 54.8643ZM264.177 54.6082L264.769 55.4141L264.775 55.4101L264.177 54.6082ZM254.7 67.5438L255.632 67.9052L255.633 67.9027L254.7 67.5438ZM237.641 172.886V37.6382H235.641V172.886H237.641ZM236.641 38.6382H251.242V36.6382H236.641V38.6382ZM250.242 37.6382V53.2634H252.242V37.6382H250.242ZM251.242 54.2634H253.035V52.2634H251.242V54.2634ZM253.873 53.8083C254.967 52.1252 256.49 49.9664 258.448 47.3274L256.842 46.1357C254.873 48.7904 253.322 50.9862 252.196 52.7184L253.873 53.8083ZM258.447 47.3295C260.351 44.7776 263.093 42.4719 266.717 40.4306L265.736 38.688C261.932 40.8305 258.953 43.3063 256.844 46.1336L258.447 47.3295ZM266.72 40.4288C270.271 38.4113 275.159 37.3574 281.467 37.3574V35.3574C274.968 35.3574 269.695 36.4382 265.732 38.6899L266.72 40.4288ZM281.467 37.3574C289.574 37.3574 296.68 39.3813 302.82 43.4054L303.916 41.7327C297.419 37.4746 289.925 35.3574 281.467 35.3574V37.3574ZM302.82 43.4054C308.966 47.4336 313.781 53.1523 317.255 60.602L319.067 59.7568C315.454 52.0082 310.407 45.9867 303.916 41.7327L302.82 43.4054ZM317.255 60.602C320.724 68.0418 322.476 76.8567 322.476 87.0752H324.476C324.476 76.6309 322.685 67.5153 319.067 59.7568L317.255 60.602ZM322.476 87.0752C322.476 97.3803 320.723 106.26 317.254 113.743L319.068 114.584C322.685 106.783 324.476 97.6038 324.476 87.0752H322.476ZM317.255 113.741C313.78 121.193 308.984 126.934 302.878 131.006L303.987 132.67C310.432 128.373 315.455 122.332 319.067 114.586L317.255 113.741ZM302.881 131.003C296.784 135.026 289.743 137.049 281.723 137.049V139.049C290.098 139.049 297.529 136.931 303.983 132.672L302.881 131.003ZM281.723 137.049C275.502 137.049 270.628 136.017 267.029 134.035L266.064 135.787C270.064 137.989 275.308 139.049 281.723 139.049V137.049ZM267.036 134.04C263.323 131.953 260.515 129.624 258.569 127.069L256.978 128.281C259.13 131.106 262.171 133.6 266.057 135.783L267.036 134.04ZM258.573 127.075C256.533 124.354 254.973 122.118 253.885 120.361L252.184 121.413C253.317 123.242 254.916 125.532 256.973 128.275L258.573 127.075ZM253.035 119.887H251.754V121.887H253.035V119.887ZM250.754 120.887V172.886H252.754V120.887H250.754ZM251.754 171.886H236.641V173.886H251.754V171.886ZM250.498 86.8191C250.498 94.3436 251.6 101.022 253.83 106.837L255.697 106.121C253.572 100.579 252.498 94.1513 252.498 86.8191H250.498ZM253.831 106.839C256.065 112.62 259.347 117.199 263.697 120.529L264.913 118.94C260.896 115.866 257.817 111.608 255.696 106.118L253.831 106.839ZM263.703 120.532C268.086 123.843 273.43 125.473 279.674 125.473V123.473C273.794 123.473 268.892 121.945 264.908 118.936L263.703 120.532ZM279.674 125.473C286.176 125.473 291.678 123.756 296.11 120.264L294.873 118.693C290.852 121.861 285.809 123.473 279.674 123.473V125.473ZM296.111 120.263C300.539 116.765 303.842 112.082 306.033 106.254L304.161 105.55C302.083 111.078 298.982 115.446 294.872 118.694L296.111 120.263ZM306.032 106.258C308.258 100.409 309.363 93.9248 309.363 86.8191H307.363C307.363 93.7163 306.291 99.9546 304.163 105.547L306.032 106.258ZM309.363 86.8191C309.363 79.8 308.28 73.4426 306.095 67.7611L304.228 68.4791C306.312 73.8974 307.363 80.0061 307.363 86.8191H309.363ZM306.098 67.7698C303.948 62.0209 300.661 57.4397 296.225 54.0681L295.015 55.6605C299.117 58.778 302.191 63.034 304.225 68.4704L306.098 67.7698ZM296.234 54.075C291.799 50.6259 286.255 48.9334 279.674 48.9334V50.9334C285.901 50.9334 290.987 52.5282 295.006 55.6537L296.234 54.075ZM279.674 48.9334C273.351 48.9334 267.966 50.5393 263.58 53.8062L264.775 55.4101C268.756 52.444 273.702 50.9334 279.674 50.9334V48.9334ZM263.585 53.8023C259.226 57.0051 255.959 61.4829 253.766 67.1848L255.633 67.9027C257.709 62.5047 260.761 58.3588 264.769 55.414L263.585 53.8023ZM253.767 67.1824C251.579 72.8291 250.498 79.3815 250.498 86.8191H252.498C252.498 79.5707 253.551 73.2729 255.632 67.9052L253.767 67.1824ZM389.307 37.6382H390.307V36.6382H389.307V37.6382ZM389.307 50.4457V51.4457H390.307V50.4457H389.307ZM338.333 50.4457H337.333V51.4457H338.333V50.4457ZM338.333 37.6382V36.6382H337.333V37.6382H338.333ZM353.189 14.0723V13.0723H352.189V14.0723H353.189ZM368.302 14.0723H369.302V13.0723H368.302V14.0723ZM370.159 117.429L369.294 117.931L369.3 117.941L369.307 117.951L370.159 117.429ZM375.026 121.656L374.68 122.594L374.692 122.598L374.704 122.602L375.026 121.656ZM385.464 122.424L385.622 123.411L385.642 123.408L385.661 123.405L385.464 122.424ZM388.026 121.912L389.001 121.691L388.786 120.74L387.83 120.931L388.026 121.912ZM391.1 135.488L391.451 136.424L392.268 136.118L392.075 135.267L391.1 135.488ZM386.809 136.64L386.604 135.662L386.594 135.664L386.583 135.666L386.809 136.64ZM367.278 134.527L366.865 135.438L366.869 135.44L367.278 134.527ZM357.16 126.138L356.342 126.714L356.347 126.72L357.16 126.138ZM388.307 37.6382V50.4457H390.307V37.6382H388.307ZM389.307 49.4457H338.333V51.4457H389.307V49.4457ZM339.333 50.4457V37.6382H337.333V50.4457H339.333ZM338.333 38.6382H389.307V36.6382H338.333V38.6382ZM353.189 15.0723H368.302V13.0723H353.189V15.0723ZM367.302 14.0723V107.823H369.302V14.0723H367.302ZM367.302 107.823C367.302 112.157 367.925 115.57 369.294 117.931L371.025 116.927C369.918 115.019 369.302 112.029 369.302 107.823H367.302ZM369.307 117.951C370.684 120.2 372.47 121.777 374.68 122.594L375.373 120.718C373.655 120.083 372.197 118.842 371.012 116.907L369.307 117.951ZM374.704 122.602C376.819 123.322 379.042 123.68 381.366 123.68V121.68C379.25 121.68 377.246 121.355 375.349 120.709L374.704 122.602ZM381.366 123.68C383.059 123.68 384.483 123.594 385.622 123.411L385.306 121.437C384.311 121.596 383.003 121.68 381.366 121.68V123.68ZM385.661 123.405C386.728 123.191 387.582 123.02 388.222 122.892L387.83 120.931C387.189 121.059 386.336 121.23 385.268 121.443L385.661 123.405ZM387.051 122.133L390.124 135.709L392.075 135.267L389.001 121.691L387.051 122.133ZM390.749 134.551C389.793 134.91 388.42 135.282 386.604 135.662L387.014 137.619C388.87 137.231 390.357 136.834 391.451 136.424L390.749 134.551ZM386.583 135.666C384.848 136.07 382.604 136.281 379.829 136.281V138.281C382.689 138.281 385.099 138.065 387.036 137.614L386.583 135.666ZM379.829 136.281C375.708 136.281 371.663 135.396 367.687 133.615L366.869 135.44C371.089 137.33 375.412 138.281 379.829 138.281V136.281ZM367.69 133.616C363.801 131.856 360.564 129.176 357.973 125.556L356.347 126.72C359.135 130.615 362.643 133.527 366.865 135.438L367.69 133.616ZM357.977 125.562C355.475 122.011 354.189 117.487 354.189 111.922H352.189C352.189 117.798 353.55 122.751 356.342 126.714L357.977 125.562ZM354.189 111.922V14.0723H352.189V111.922H354.189ZM474.029 37.6382V36.6382H473.029V37.6382H474.029ZM489.141 37.6382H490.141V36.6382H489.141V37.6382ZM489.141 136V137H490.141V136H489.141ZM474.029 136H473.029V137H474.029V136ZM474.029 119.35H475.029V118.35H474.029V119.35ZM473.004 119.35V118.35H472.364L472.096 118.931L473.004 119.35ZM462.246 132.094L462.825 132.909L462.83 132.906L462.246 132.094ZM427.409 133.246L426.913 134.115L426.919 134.118L427.409 133.246ZM416.138 120.951L415.243 121.396L415.244 121.398L416.138 120.951ZM412.04 37.6382V36.6382H411.04V37.6382H412.04ZM427.153 37.6382H428.153V36.6382H427.153V37.6382ZM433.172 116.276L432.444 116.961L432.448 116.965L433.172 116.276ZM460.132 119.798L459.693 118.9L459.689 118.902L460.132 119.798ZM469.994 110.961L469.166 110.4L469.162 110.407L469.994 110.961ZM475.029 95.7844V37.6382H473.029V95.7844H475.029ZM474.029 38.6382H489.141V36.6382H474.029V38.6382ZM488.141 37.6382V136H490.141V37.6382H488.141ZM489.141 135H474.029V137H489.141V135ZM475.029 136V119.35H473.029V136H475.029ZM474.029 118.35H473.004V120.35H474.029V118.35ZM472.096 118.931C469.869 123.756 466.401 127.873 461.662 131.282L462.83 132.906C467.824 129.313 471.528 124.935 473.912 119.769L472.096 118.931ZM461.666 131.279C457.006 134.59 451.075 136.281 443.803 136.281V138.281C451.387 138.281 457.751 136.514 462.825 132.909L461.666 131.279ZM443.803 136.281C437.806 136.281 432.514 134.97 427.899 132.375L426.919 134.118C431.867 136.902 437.505 138.281 443.803 138.281V136.281ZM427.905 132.378C423.314 129.754 419.687 125.812 417.033 120.504L415.244 121.398C418.055 127.019 421.942 131.274 426.913 134.115L427.905 132.378ZM417.034 120.507C414.391 115.178 413.04 108.405 413.04 100.139H411.04C411.04 108.608 412.422 115.71 415.243 121.396L417.034 120.507ZM413.04 100.139V37.6382H411.04V100.139H413.04ZM412.04 38.6382H427.153V36.6382H412.04V38.6382ZM426.153 37.6382V99.1143H428.153V37.6382H426.153ZM426.153 99.1143C426.153 106.481 428.219 112.467 432.444 116.961L433.901 115.591C430.1 111.547 428.153 106.092 428.153 99.1143H426.153ZM432.448 116.965C436.705 121.447 442.14 123.68 448.67 123.68V121.68C442.648 121.68 437.751 119.644 433.897 115.588L432.448 116.965ZM448.67 123.68C452.602 123.68 456.574 122.674 460.576 120.695L459.689 118.902C455.921 120.766 452.251 121.68 448.67 121.68V123.68ZM460.572 120.697C464.673 118.691 468.09 115.62 470.826 111.516L469.162 110.407C466.604 114.244 463.447 117.064 459.693 118.9L460.572 120.697ZM470.822 111.522C473.652 107.345 475.029 102.076 475.029 95.7844H473.029C473.029 101.788 471.716 106.637 469.166 110.4L470.822 111.522ZM516.822 136H515.822V137H516.822V136ZM516.822 37.6382V36.6382H515.822V37.6382H516.822ZM531.422 37.6382H532.422V36.6382H531.422V37.6382ZM531.422 52.4949H530.422V53.4949H531.422V52.4949ZM532.447 52.4949V53.4949H533.144L533.385 52.8406L532.447 52.4949ZM542.181 40.6479L541.638 39.8078L542.181 40.6479ZM566.003 36.3574H567.003V35.4524L566.102 35.3624L566.003 36.3574ZM566.003 51.7265L565.76 52.6966L567.003 53.0072V51.7265H566.003ZM562.481 51.1501L562.316 52.1365L562.329 52.1387L562.342 52.1405L562.481 51.1501ZM543.974 53.7116L544.441 54.5957L544.445 54.5937L543.974 53.7116ZM535.136 61.9084L534.287 61.3803L534.286 61.3832L535.136 61.9084ZM531.935 136V137H532.935V136H531.935ZM517.822 136V37.6382H515.822V136H517.822ZM516.822 38.6382H531.422V36.6382H516.822V38.6382ZM530.422 37.6382V52.4949H532.422V37.6382H530.422ZM531.422 53.4949H532.447V51.4949H531.422V53.4949ZM533.385 52.8406C535.097 48.1933 538.194 44.4114 542.723 41.4881L541.638 39.8078C536.775 42.9467 533.382 47.0628 531.509 52.1492L533.385 52.8406ZM542.723 41.4881C547.248 38.5671 552.352 37.1013 558.062 37.1013V35.1013C551.989 35.1013 546.505 36.6665 541.638 39.8078L542.723 41.4881ZM558.062 37.1013C559.16 37.1013 560.539 37.1224 562.199 37.165L562.25 35.1656C560.58 35.1228 559.184 35.1013 558.062 35.1013V37.1013ZM562.199 37.165C563.857 37.2075 565.087 37.2709 565.903 37.3525L566.102 35.3624C565.211 35.2732 563.921 35.2085 562.25 35.1656L562.199 37.165ZM565.003 36.3574V51.7265H567.003V36.3574H565.003ZM566.245 50.7563C565.671 50.6127 564.44 50.4138 562.619 50.1597L562.342 52.1405C564.193 52.3988 565.31 52.584 565.76 52.6966L566.245 50.7563ZM562.645 50.1637C560.792 49.855 558.837 49.7019 556.781 49.7019V51.7019C558.738 51.7019 560.583 51.8476 562.316 52.1365L562.645 50.1637ZM556.781 49.7019C551.856 49.7019 547.421 50.7365 543.503 52.8296L544.445 54.5937C548.04 52.6737 552.144 51.7019 556.781 51.7019V49.7019ZM543.506 52.8276C539.639 54.8725 536.56 57.7263 534.287 61.3803L535.986 62.4366C538.068 59.0892 540.88 56.4784 544.441 54.5957L543.506 52.8276ZM534.286 61.3832C532.045 65.0136 530.935 69.1477 530.935 73.7554H532.935C532.935 69.4832 533.959 65.7194 535.987 62.4337L534.286 61.3832ZM530.935 73.7554V136H532.935V73.7554H530.935ZM531.935 135H516.822V137H531.935V135ZM583.917 136H582.917V137H583.917V136ZM583.917 37.6382V36.6382H582.917V37.6382H583.917ZM599.03 37.6382H600.03V36.6382H599.03V37.6382ZM599.03 136V137H600.03V136H599.03ZM583.981 18.2348L583.289 18.9565L583.296 18.9634L583.981 18.2348ZM583.981 3.76226L583.296 3.0336L583.289 3.04058L583.981 3.76226ZM599.158 3.76226L598.466 4.48398L598.473 4.49089L599.158 3.76226ZM599.158 18.2348L598.473 17.5061L598.466 17.5131L599.158 18.2348ZM584.917 136V37.6382H582.917V136H584.917ZM583.917 38.6382H599.03V36.6382H583.917V38.6382ZM598.03 37.6382V136H600.03V37.6382H598.03ZM599.03 135H583.917V137H599.03V135ZM591.602 20.2445C588.909 20.2445 586.614 19.3373 584.666 17.5061L583.296 18.9634C585.617 21.1453 588.403 22.2445 591.602 22.2445V20.2445ZM584.673 17.5131C582.772 15.6891 581.843 13.535 581.843 10.9985H579.843C579.843 14.0973 581.007 16.7675 583.289 18.9565L584.673 17.5131ZM581.843 10.9985C581.843 8.462 582.772 6.30797 584.673 4.48394L583.289 3.04058C581.007 5.22958 579.843 7.89973 579.843 10.9985H581.843ZM584.666 4.49089C586.614 2.65977 588.909 1.7525 591.602 1.7525V-0.247501C588.403 -0.247501 585.617 0.851736 583.296 3.03363L584.666 4.49089ZM591.602 1.7525C594.294 1.7525 596.563 2.65924 598.466 4.48394L599.85 3.04058C597.569 0.852264 594.801 -0.247501 591.602 -0.247501V1.7525ZM598.473 4.49089C600.416 6.31687 601.36 8.46893 601.36 10.9985H603.36C603.36 7.8928 602.17 5.22069 599.843 3.03364L598.473 4.49089ZM601.36 10.9985C601.36 13.5281 600.416 15.6802 598.473 17.5061L599.843 18.9634C602.17 16.7764 603.36 14.1042 603.36 10.9985H601.36ZM598.466 17.5131C596.563 19.3378 594.294 20.2445 591.602 20.2445V22.2445C594.801 22.2445 597.569 21.1448 599.85 18.9565L598.466 17.5131ZM669.487 37.6382H670.487V36.6382H669.487V37.6382ZM669.487 50.4457V51.4457H670.487V50.4457H669.487ZM618.513 50.4457H617.513V51.4457H618.513V50.4457ZM618.513 37.6382V36.6382H617.513V37.6382H618.513ZM633.37 14.0723V13.0723H632.37V14.0723H633.37ZM648.483 14.0723H649.483V13.0723H648.483V14.0723ZM650.34 117.429L649.475 117.931L649.481 117.941L649.487 117.951L650.34 117.429ZM655.207 121.656L654.86 122.594L654.872 122.598L654.885 122.602L655.207 121.656ZM665.645 122.424L665.803 123.411L665.822 123.408L665.841 123.405L665.645 122.424ZM668.207 121.912L669.182 121.691L668.967 120.74L668.01 120.931L668.207 121.912ZM671.28 135.488L671.632 136.424L672.448 136.118L672.256 135.267L671.28 135.488ZM666.99 136.64L666.785 135.662L666.774 135.664L666.763 135.666L666.99 136.64ZM647.458 134.527L647.046 135.438L647.05 135.44L647.458 134.527ZM637.341 126.138L636.523 126.714L636.527 126.72L637.341 126.138ZM668.487 37.6382V50.4457H670.487V37.6382H668.487ZM669.487 49.4457H618.513V51.4457H669.487V49.4457ZM619.513 50.4457V37.6382H617.513V50.4457H619.513ZM618.513 38.6382H669.487V36.6382H618.513V38.6382ZM633.37 15.0723H648.483V13.0723H633.37V15.0723ZM647.483 14.0723V107.823H649.483V14.0723H647.483ZM647.483 107.823C647.483 112.157 648.106 115.57 649.475 117.931L651.205 116.927C650.099 115.019 649.483 112.029 649.483 107.823H647.483ZM649.487 117.951C650.864 120.2 652.651 121.777 654.86 122.594L655.554 120.718C653.835 120.083 652.377 118.842 651.193 116.907L649.487 117.951ZM654.885 122.602C657 123.322 659.222 123.68 661.547 123.68V121.68C659.431 121.68 657.427 121.355 655.529 120.709L654.885 122.602ZM661.547 123.68C663.24 123.68 664.664 123.594 665.803 123.411L665.487 121.437C664.492 121.596 663.184 121.68 661.547 121.68V123.68ZM665.841 123.405C666.909 123.191 667.762 123.02 668.403 122.892L668.01 120.931C667.37 121.059 666.516 121.23 665.449 121.443L665.841 123.405ZM667.231 122.133L670.305 135.709L672.256 135.267L669.182 121.691L667.231 122.133ZM670.929 134.551C669.974 134.91 668.601 135.282 666.785 135.662L667.195 137.619C669.051 137.231 670.538 136.834 671.632 136.424L670.929 134.551ZM666.763 135.666C665.029 136.07 662.785 136.281 660.01 136.281V138.281C662.87 138.281 665.28 138.065 667.216 137.614L666.763 135.666ZM660.01 136.281C655.889 136.281 651.844 135.396 647.867 133.615L647.05 135.44C651.27 137.33 655.592 138.281 660.01 138.281V136.281ZM647.871 133.616C643.981 131.856 640.745 129.176 638.154 125.556L636.527 126.72C639.315 130.615 642.824 133.527 647.046 135.438L647.871 133.616ZM638.158 125.562C635.656 122.011 634.37 117.487 634.37 111.922H632.37C632.37 117.798 633.731 122.751 636.523 126.714L638.158 125.562ZM634.37 111.922V14.0723H632.37V111.922H634.37Z" fill="#F45000" mask="url(#path-1-outside-1_2752_1232)"/>
</svg>
